<svg width="20" height="20" viewBox="0 0 20 20" fill="none" xmlns="http://www.w3.org/2000/svg">
<path d="M10 1.5C12.7342 1.5 13.5 3.55 13.5 5C13.5 6.45 12.6548 8.5 10 8.5C7.5 8.5 6.5 6.45 6.5 5C6.5 3.55 7.5 1.5 10 1.5ZM10 13C15.5 13 18.5 15.45 18.5 16.25V18.5H1.5V16.25C1.5 15.45 4 13 10 13ZM10 0C7.2375 0 5 2.2375 5 5C5 7.7625 7.2375 10 10 10C12.7625 10 15 7.7625 15 5C15 2.2375 12.7625 0 10 0ZM10 11.25C6.6625 11.25 0 12.925 0 16.25V20H20V16.25C20 12.925 13.3375 11.25 10 11.25Z" fill="#323232"/>
</svg>
