<svg width="26" height="27" viewBox="0 0 26 27" fill="none" xmlns="http://www.w3.org/2000/svg">
<path d="M19.75 15.25V19.25C19.75 22.0784 19.75 23.4926 18.8713 24.3713C17.9926 25.25 16.5784 25.25 13.75 25.25H8.25C5.42157 25.25 4.00736 25.25 3.12868 24.3713C2.25 23.4926 2.25 22.0784 2.25 19.25V8.75C2.25 5.92157 2.25 4.50736 3.12868 3.62868C4.00736 2.75 5.42157 2.75 8.25 2.75H11" stroke="#323232" stroke-width="1.5" stroke-linecap="round"/>
<path d="M7.25 15.25L14.75 15.25" stroke="#323232" stroke-width="1.5" stroke-linecap="round"/>
<path d="M7.25 10.25L12.25 10.25" stroke="#323232" stroke-width="1.5" stroke-linecap="round"/>
<path d="M7.25 20.25L12.25 20.25" stroke="#323232" stroke-width="1.5" stroke-linecap="round"/>
<path d="M19.5 11.9956C19.1453 11.6779 18.7443 11.3476 18.3203 10.9961H18.3148C16.8215 9.76336 15.1292 8.36851 14.3817 6.69713C14.1361 6.16503 14.006 5.5861 14 4.9991C13.9984 4.19367 14.3183 3.42156 14.8876 2.85728C15.4569 2.293 16.2274 1.98419 17.025 2.00062C17.6744 2.00166 18.3097 2.19113 18.8554 2.54646C19.0952 2.70358 19.3121 2.89365 19.5 3.11117C19.6889 2.8945 19.9059 2.70455 20.1451 2.54646C20.6906 2.19106 21.3258 2.00158 21.975 2.00062C22.7726 1.98419 23.5431 2.293 24.1124 2.85728C24.6817 3.42156 25.0016 4.19367 25 4.9991C24.9944 5.58704 24.8642 6.16695 24.6183 6.69991C23.8708 8.37128 22.179 9.76558 20.6858 10.9961L20.6803 11.0005C20.2557 11.3498 19.8553 11.6802 19.5006 12L19.5 11.9956ZM17.025 3.11117C16.5127 3.1047 16.0185 3.30266 15.65 3.662C15.2949 4.01414 15.0965 4.49661 15.1 4.9991C15.1062 5.42694 15.2022 5.84859 15.3816 6.23626C15.7344 6.95739 16.2105 7.61003 16.788 8.16417C17.333 8.71944 17.96 9.25695 18.5023 9.70894C18.6525 9.83388 18.8054 9.95992 18.9583 10.086L19.0545 10.1654C19.2014 10.2864 19.3532 10.4119 19.5 10.5352L19.5071 10.5285L19.5105 10.5257H19.5138L19.5187 10.5219H19.5215H19.5242L19.5341 10.5135L19.5566 10.4952L19.5605 10.4919L19.5666 10.4874H19.5698L19.5748 10.483L19.94 10.1804L20.0357 10.101C20.1902 9.97381 20.3431 9.84776 20.4933 9.72282C21.0356 9.27083 21.6631 8.73388 22.2082 8.17583C22.7857 7.62197 23.2618 6.9695 23.6145 6.24847C23.7972 5.85745 23.8945 5.43139 23.9 4.9991C23.9023 4.49816 23.7039 4.01754 23.35 3.66645C22.9822 3.30547 22.4879 3.10589 21.975 3.11117C21.3491 3.1058 20.7507 3.37069 20.3305 3.83914L19.5 4.80531L18.6695 3.83914C18.2493 3.37069 17.6509 3.1058 17.025 3.11117Z" fill="#323232"/>
</svg>
