<svg width="38" height="35" viewBox="0 0 38 35" fill="none" xmlns="http://www.w3.org/2000/svg">
<path d="M5.06148 1.20001C2.50005 1.2 2.50005 1.07769 2.50005 1.50001C2.50005 3.00001 2.50005 3.92 2.50005 5.42M5.06148 1.20001C6.03779 1.20001 7.70005 1.20001 7.70005 1.20001M5.06148 1.20001C5.06149 2.87926 5.06148 5.42 5.06148 5.42M7.70005 1.20001H10.3301M7.70005 1.20001V5.42M10.3301 1.20001H12.9301M10.3301 1.20001V5.42M12.9301 1.20001C12.9301 1.20001 14.5737 1.20001 15.5501 1.20001M12.9301 1.20001V5.42M15.5501 1.20001C18.0501 1.2 18.0001 1.08 18.0001 1.50001C18 3.00001 18 3.92 18.0001 5.42M15.5501 1.20001C15.5501 2.82812 15.5501 5.42 15.5501 5.42M18.0001 5.42C17.0433 5.42 15.5501 5.42 15.5501 5.42M18.0001 5.42C18 5.5 16.6501 5.39453 16.65 6.5C16.65 7.49999 16.5 8.6 17 9.6C18 11.6 19.181 11.6882 19.7001 13.5C19.9176 14.2593 19.8516 15.8 19.8516 15.8M15.5501 5.42H12.9301M12.9301 5.42H10.3301M10.3301 5.42H7.70005M7.70005 5.42H5.06148M5.06148 5.42C5.06148 5.42 3.50035 5.42 2.50005 5.42M2.50005 5.42C2.50005 5.5 4.00008 5.39 4.00008 6.50001C4.00008 7.5 3.99159 8.59842 3.64932 9.6C3.00005 11.3 1.4367 11.69 1.00008 13.5C0.763289 14.76 0.800194 15.8 0.800194 15.8M18.3716 34.4222C13.3723 34.3422 8 34.38 3.00008 34.38C2.5 34.38 1.5 34.116 1.00001 33C0.704417 32.3402 0.800217 29.068 0.800217 29.068M18.3716 34.4222C17.1 33.5 16.75 32.7765 16.75 31.5C16.75 30.6265 17.3284 29.499 18.7 29.06M18.3716 34.4222C18.8715 34.4222 23.1325 34.4222 23.1325 34.4222M18.7 29.06C11.8379 29.06 0.800217 29.068 0.800217 29.068M18.7 29.06C18.9787 29.06 19.8516 29.061 19.8516 29.061M27.5001 29.06C25.7427 29.06 23.1325 29.0812 23.1325 29.0812M27.5001 29.06C27.5158 29.0669 27.5316 29.074 27.5473 29.0812C28.5312 29.5315 29.5 30.5157 29.5001 31.5M27.5001 29.06C27.5001 28.9781 27.5 28.6819 27.5 28.6M29.5001 31.5C29.5 33.5 28.0486 34.3907 27.2371 34.4222C25.2371 34.5 23.1325 34.4222 23.1325 34.4222M29.5001 31.5C31.2574 29.9379 33.8 27.27 33.8 27.27M23.1325 34.4222V29.0812M23.1325 29.0812L19.8516 29.061M33.8 27.27C33.8 27.27 32 25.5 31.0001 24.5C30.2641 23.764 28.5397 23.6126 27.5001 24.5C26.2823 25.5396 26.2823 27.5604 27.5 28.6M33.8 27.27C33.8 27.27 35.9999 29.5 37 30.5C37.5 31 37.5 32.5 36.5 33.5C34.8016 35.1984 33.2296 34.2295 33.0001 34C31 32 29.6479 30.7088 27.5 28.6M0.800217 29.068L0.800194 15.8M0.800194 15.8H19.8516M19.8516 15.8V21.5V27.4558V29.061M11.6 18.5C11.5999 19.5 11.6 20.9086 11.6 21.2305C11.6 21.36 14.5 21.2005 14.5 21.33C14.5 22.53 14.5 23.7 14.5 23.8199C14.5 23.9397 11.6 23.7724 11.6 23.9123C11.6 25.0924 11.5999 26.0527 11.6 26.5527C11.6 26.7658 11.0102 26.7602 10.3924 26.77C9.71311 26.7808 9 26.7857 9 26.55C9 25.55 9 24.9123 9 23.9123C9 23.7723 6.1007 23.94 6.1 23.82C6.1 22.82 6.1 22.2914 6.1 21.33C6.1 21.2 9 21.36 9 21.23C9 20.5 9 19.5 9 18.5C9 18.3619 9.70523 18.3617 10.3811 18.36C11.003 18.3585 11.6 18.3429 11.6 18.5Z" stroke="#1D1D1D"/>
</svg>
