<svg width="20" height="18" viewBox="0 0 20 18" fill="none" xmlns="http://www.w3.org/2000/svg">
<path d="M7 15.9282C8.21615 16.6303 9.59571 17 11 17C12.4043 17 13.7838 16.6303 15 15.9282C16.2162 15.2261 17.2261 14.2162 17.9282 13C18.6303 11.7838 19 10.4043 19 9C19 7.59571 18.6303 6.21615 17.9282 5C17.2261 3.78385 16.2162 2.77394 15 2.0718C13.7838 1.36965 12.4043 1 11 1C9.59571 1 8.21615 1.36965 7 2.0718" stroke="#323232" stroke-width="1.5"/>
<path d="M1 9L0.414348 8.53148L0.0395314 9L0.414348 9.46852L1 9ZM10 9.75C10.4142 9.75 10.75 9.41421 10.75 9C10.75 8.58579 10.4142 8.25 10 8.25V9.75ZM4.41435 3.53148L0.414348 8.53148L1.58565 9.46852L5.58565 4.46852L4.41435 3.53148ZM0.414348 9.46852L4.41435 14.4685L5.58565 13.5315L1.58565 8.53148L0.414348 9.46852ZM1 9.75H10V8.25H1V9.75Z" fill="#323232"/>
</svg>
