<svg width="27" height="26" viewBox="0 0 27 26" fill="none" xmlns="http://www.w3.org/2000/svg">
<g clip-path="url(#clip0_516_327)">
<g clip-path="url(#clip1_516_327)">
<path d="M4.89122 12.4565C6.39199 12.4565 7.60861 11.2399 7.60861 9.73913C7.60861 8.23835 6.39199 7.02174 4.89122 7.02174C3.39045 7.02174 2.17383 8.23835 2.17383 9.73913C2.17383 11.2399 3.39045 12.4565 4.89122 12.4565Z" fill="#323232"/>
<path d="M9.78258 8.10869C11.2834 8.10869 12.5 6.89208 12.5 5.3913C12.5 3.89053 11.2834 2.67391 9.78258 2.67391C8.2818 2.67391 7.06519 3.89053 7.06519 5.3913C7.06519 6.89208 8.2818 8.10869 9.78258 8.10869Z" fill="#323232"/>
<path d="M16.3043 8.10869C17.8051 8.10869 19.0217 6.89208 19.0217 5.3913C19.0217 3.89053 17.8051 2.67391 16.3043 2.67391C14.8035 2.67391 13.5869 3.89053 13.5869 5.3913C13.5869 6.89208 14.8035 8.10869 16.3043 8.10869Z" fill="#323232"/>
<path d="M21.1957 12.4565C22.6964 12.4565 23.9131 11.2399 23.9131 9.73913C23.9131 8.23835 22.6964 7.02174 21.1957 7.02174C19.6949 7.02174 18.4783 8.23835 18.4783 9.73913C18.4783 11.2399 19.6949 12.4565 21.1957 12.4565Z" fill="#323232"/>
<path d="M18.8476 15.5652C17.902 14.4565 17.1085 13.5109 16.152 12.4022C15.652 11.8152 15.0107 11.2283 14.2498 10.9674C14.1302 10.9239 14.0107 10.8913 13.8911 10.8696C13.6194 10.8261 13.3259 10.8261 13.0433 10.8261C12.7607 10.8261 12.4672 10.8261 12.1846 10.8804C12.065 10.9022 11.9455 10.9348 11.8259 10.9783C11.065 11.2391 10.4346 11.8261 9.92372 12.413C8.97807 13.5217 8.18459 14.4674 7.22807 15.5761C5.80415 17 4.05415 18.5761 4.38024 20.7826C4.69546 21.8913 5.48894 22.9891 6.91285 23.3043C7.70633 23.4674 10.2389 22.8261 12.9346 22.8261H13.1302C15.8259 22.8261 18.3585 23.4565 19.152 23.3043C20.5759 22.9891 21.3694 21.8804 21.6846 20.7826C22.0215 18.5652 20.2715 16.9891 18.8476 15.5652Z" fill="#323232"/>
</g>
<path d="M17.646 16.1754C16.899 15.3562 16.2723 14.6576 15.5167 13.8384C15.1218 13.4047 14.6152 12.9711 14.0142 12.7783C13.9197 12.7462 13.8253 12.7221 13.7309 12.706C13.5162 12.6739 13.2844 12.6739 13.0612 12.6739C12.8379 12.6739 12.6061 12.6739 12.3829 12.7141C12.2884 12.7301 12.194 12.7542 12.0995 12.7863C11.4985 12.9791 11.0006 13.4128 10.597 13.8464C9.85005 14.6656 9.19912 15.3572 8.44449 16.1754C7.38094 17.3286 5.84348 18.4156 5.98773 20.0303C6.23672 20.8494 6.79952 21.6605 7.92427 21.8934C8.55104 22.0139 10.846 21.5401 12.9753 21.5401H13.1298C15.2591 21.5401 17.7016 22.0059 18.3283 21.8934C19.4531 21.6605 19.8299 20.8414 20.0789 20.0303C20.3451 18.3919 18.7708 17.2275 17.646 16.1754Z" fill="white"/>
<path d="M21.1956 11.3696C22.0961 11.3696 22.8261 10.6396 22.8261 9.73913C22.8261 8.83867 22.0961 8.1087 21.1956 8.1087C20.2952 8.1087 19.5652 8.83867 19.5652 9.73913C19.5652 10.6396 20.2952 11.3696 21.1956 11.3696Z" fill="white"/>
<path d="M16.3043 7.02174C17.2047 7.02174 17.9347 6.29177 17.9347 5.39131C17.9347 4.49084 17.2047 3.76087 16.3043 3.76087C15.4038 3.76087 14.6738 4.49084 14.6738 5.39131C14.6738 6.29177 15.4038 7.02174 16.3043 7.02174Z" fill="white"/>
<path d="M9.78253 7.02174C10.683 7.02174 11.413 6.29177 11.413 5.39131C11.413 4.49084 10.683 3.76087 9.78253 3.76087C8.88207 3.76087 8.1521 4.49084 8.1521 5.39131C8.1521 6.29177 8.88207 7.02174 9.78253 7.02174Z" fill="white"/>
<path d="M4.89142 11.3696C5.79189 11.3696 6.52186 10.6396 6.52186 9.73913C6.52186 8.83867 5.79189 8.1087 4.89142 8.1087C3.99096 8.1087 3.26099 8.83867 3.26099 9.73913C3.26099 10.6396 3.99096 11.3696 4.89142 11.3696Z" fill="white"/>
</g>
<defs>
<clipPath id="clip0_516_327">
<rect width="26.087" height="25" fill="white" transform="translate(0 0.5)"/>
</clipPath>
<clipPath id="clip1_516_327">
<rect width="26.087" height="26.087" fill="white" transform="translate(0 -0.58696)"/>
</clipPath>
</defs>
</svg>
