<?xml version="1.0" standalone="no"?>
<!DOCTYPE svg PUBLIC "-//W3C//DTD SVG 20010904//EN"
 "http://www.w3.org/TR/2001/REC-SVG-20010904/DTD/svg10.dtd">
<svg version="1.0" xmlns="http://www.w3.org/2000/svg" viewBox="0 0 256.000000 256.000000"
 preserveAspectRatio="xMidYMid meet">

<g transform="translate(0.000000,256.000000) scale(0.100000,-0.100000)"
fill="#000000" stroke="none">
<path d="M847 2385 c-376 -72 -660 -393 -684 -775 -15 -246 68 -461 247 -640
138 -138 281 -211 471 -241 198 -31 452 31 605 147 l47 36 376 -376 c342 -341
380 -376 409 -376 44 0 82 38 82 82 0 29 -35 67 -376 409 l-377 377 32 40 c46
59 108 189 133 279 28 106 30 306 4 408 -52 199 -179 385 -339 494 -69 47
-200 106 -280 125 -97 24 -255 29 -350 11z m291 -161 c152 -31 307 -127 398
-247 190 -250 190 -584 0 -834 -119 -158 -334 -263 -536 -263 -202 0 -417 105
-536 263 -159 209 -187 479 -74 712 137 281 441 432 748 369z"/>
</g>
</svg>
