<?xml version="1.0" standalone="no"?>
<!DOCTYPE svg PUBLIC "-//W3C//DTD SVG 20010904//EN"
 "http://www.w3.org/TR/2001/REC-SVG-20010904/DTD/svg10.dtd">
<svg version="1.0" xmlns="http://www.w3.org/2000/svg"
 width="315.000000pt" height="100.000000pt" viewBox="0 0 315.000000 100.000000"
 preserveAspectRatio="xMidYMid meet">

<g transform="translate(0.000000,100.000000) scale(0.100000,-0.100000)"
fill="#000000" stroke="none">
<path d="M1550 743 c0 -71 4 -143 10 -162 29 -102 173 -156 275 -103 84 42
106 93 113 260 l5 122 -90 0 -90 0 -7 -52 c-3 -29 -6 -79 -6 -110 0 -46 -3
-58 -16 -58 -13 0 -15 16 -13 113 l3 112 -92 3 -92 3 0 -128z"/>
<path d="M1120 750 l-105 -100 36 0 36 0 7 -56 c3 -31 13 -69 21 -85 30 -58
125 -80 193 -45 34 18 38 33 26 108 -6 32 -9 35 -24 26 -29 -18 -50 -3 -50 36
0 30 4 35 30 41 26 6 30 11 30 38 0 43 -9 55 -45 59 -27 3 -30 7 -33 41 -2 20
-6 37 -10 37 -4 -1 -54 -46 -112 -100z"/>
<path d="M2112 813 c-39 -19 -70 -59 -79 -103 -3 -17 -13 -34 -22 -38 -21 -8
-31 -22 -31 -49 0 -14 6 -23 16 -23 14 0 15 -10 9 -74 -4 -40 -3 -76 1 -79 5
-3 43 -7 84 -9 l75 -3 8 70 8 70 44 -3 c41 -4 43 -3 50 28 8 39 7 40 -45 47
-38 5 -40 7 -25 22 14 15 18 15 45 -1 33 -19 32 -20 45 88 6 51 6 52 -26 63
-46 16 -118 13 -157 -6z"/>
<path d="M2334 717 c-16 -44 -71 -293 -66 -298 11 -10 142 -40 151 -34 5 2 12
17 15 32 20 83 38 133 48 133 6 0 19 -6 27 -14 9 -8 28 -18 43 -21 22 -6 33
-1 58 23 37 37 39 74 5 107 -28 29 -70 32 -104 8 -24 -16 -24 -16 -18 9 7 25
4 26 -74 46 -58 14 -82 17 -85 9z"/>
<path d="M783 701 c-75 -35 -108 -118 -79 -196 34 -87 116 -129 207 -105 88
23 140 74 131 128 -4 26 -14 28 -32 7 -15 -18 -71 -29 -105 -21 -40 10 -22 22
56 35 l71 13 -6 32 c-20 101 -141 155 -243 107z m125 -84 c3 -13 -3 -17 -27
-17 -33 0 -39 8 -19 28 17 17 42 11 46 -11z"/>
<path d="M450 686 c-19 -7 -81 -36 -137 -64 l-102 -52 33 -72 c32 -70 135
-280 141 -286 2 -2 39 15 84 38 l81 40 -35 70 -35 70 32 0 c50 0 96 34 120 87
20 46 20 47 1 92 -32 79 -100 107 -183 77z m25 -136 c6 -20 -9 -50 -25 -50 -7
0 -30 45 -30 60 0 20 49 10 55 -10z"/>
<path d="M2681 566 c-27 -43 -26 -56 3 -56 30 0 90 -41 95 -65 3 -18 2 -18
-20 -2 -63 46 -123 45 -159 -1 -40 -50 -10 -122 58 -139 15 -3 33 -14 42 -23
16 -18 115 -80 128 -80 12 0 111 173 118 206 13 66 -47 137 -147 175 -72 28
-94 25 -118 -15z m48 -175 c17 -11 7 -41 -13 -41 -19 0 -29 17 -22 35 6 17 15
18 35 6z"/>
</g>
</svg>
