<svg width="38" height="37" viewBox="0 0 38 37" fill="none" xmlns="http://www.w3.org/2000/svg">
<path d="M21.5 5L21.4503 5.49751C21.6122 5.51371 21.7719 5.45008 21.8783 5.32696C21.9847 5.20383 22.0246 5.03662 21.9851 4.87874L21.5 5ZM24.5001 1.49999L24.6375 1.01923L24.6004 1.00864L24.5621 1.00385L24.5001 1.49999ZM25.5 6L25.0931 5.70937C24.9511 5.90826 24.9736 6.18072 25.1465 6.35355L25.5 6ZM32 12.5L31.6465 12.8535C31.7927 12.9998 32.014 13.0409 32.2031 12.9569L32 12.5ZM37.0001 14L37.495 13.9293L37.0001 14ZM33.5 17L33.5278 16.5008C33.3906 16.4931 33.2563 16.5423 33.1564 16.6368C33.0566 16.7312 33 16.8626 33 17L33.5 17ZM29.5001 20.5L29.3144 20.9642L29.3459 20.9768L29.3788 20.9851L29.5001 20.5ZM29.0001 16L29.4342 16.2481C29.5461 16.0523 29.5131 15.8059 29.3537 15.6464L29.0001 16ZM22.5 9.5L22.8536 9.14644C22.6941 8.98701 22.4477 8.95401 22.2519 9.06588L22.5 9.5ZM17.5 8.5L17.0149 8.62126L17.0283 8.67451L17.0528 8.72361L17.5 8.5ZM10.5001 10.8L10.4405 10.3036L10.4212 10.3059L10.4021 10.3097L10.5001 10.8ZM10.5001 16L10.9959 16.0644L10.5001 16ZM8.50011 22.5L8.02538 22.6569L8.02538 22.6569L8.50011 22.5ZM13.5001 26.5L13.5086 26.0001L13.5001 26.5ZM18.6773 22.5L18.2068 22.3308L18.2068 22.3308L18.6773 22.5ZM16.5001 15.5L16.9968 15.4421L16.5001 15.5ZM16.5001 10.68L16.5725 10.1853L16.5563 10.1829L16.54 10.1816L16.5001 10.68ZM8.00011 11.6L7.8144 11.1358L7.77721 11.1506L7.74287 11.1713L8.00011 11.6ZM7.50011 16.5L7.00948 16.4037L7.50011 16.5ZM6.00011 21.5L5.50045 21.5183L6.00011 21.5ZM9.00011 27.5L8.68405 27.8874L8.68405 27.8874L9.00011 27.5ZM16.5001 29L16.3175 28.5346L16.5001 29ZM20.5001 25L20.0439 24.7955L20.0439 24.7955L20.5001 25ZM21.0001 20L20.5077 20.0869L21.0001 20ZM19.2515 16L18.7579 16.0795L19.2515 16ZM1.00011 21.5L0.505153 21.4292L1.00011 21.5ZM7.00011 34L7.26537 33.5762L7.00011 34ZM21.5 33.5L21.7774 33.9161L21.7867 33.9096L21.5 33.5ZM26.5 22L26.9989 21.9667L26.9987 21.9644L26.5 22ZM23.4 28.3C23.5657 28.0791 23.5209 27.7657 23.3 27.6C23.0791 27.4343 22.7657 27.4791 22.6 27.7L23.4 28.3ZM17.7765 32.0528C17.5295 32.1763 17.4294 32.4766 17.5529 32.7236C17.6764 32.9706 17.9767 33.0707 18.2237 32.9472L17.7765 32.0528ZM14.5 34.2C14.7761 34.2 15 33.9761 15 33.7C15 33.4239 14.7761 33.2 14.5 33.2V34.2ZM13.5 33.2C13.2239 33.2 13 33.4239 13 33.7C13 33.9761 13.2239 34.2 13.5 34.2V33.2ZM21.5 5C21.9851 4.87874 21.9851 4.87894 21.9852 4.87913C21.9852 4.87917 21.9852 4.87934 21.9853 4.87942C21.9853 4.87959 21.9853 4.8797 21.9853 4.87976C21.9854 4.87986 21.9853 4.87973 21.9852 4.87936C21.9851 4.87864 21.9847 4.877 21.9841 4.87447C21.9829 4.8694 21.9809 4.8608 21.9783 4.84891C21.9732 4.82511 21.9656 4.78828 21.9569 4.74045C21.9397 4.64451 21.9186 4.50586 21.9045 4.34042C21.8759 4.00402 21.8787 3.58323 21.9832 3.19134C22.0862 2.80512 22.2794 2.47414 22.6163 2.25516C22.9561 2.03432 23.5139 1.8806 24.4381 1.99613L24.5621 1.00385C23.4864 0.869386 22.6691 1.02817 22.0714 1.41671C21.4707 1.8071 21.164 2.38237 21.0169 2.93365C20.8714 3.47926 20.8742 4.02722 20.9081 4.4252C20.9252 4.62694 20.951 4.79689 20.9728 4.91775C20.9837 4.97831 20.9937 5.02693 21.0012 5.06148C21.0049 5.07877 21.0081 5.09256 21.0105 5.10261C21.0116 5.10763 21.0126 5.11171 21.0134 5.11483C21.0137 5.11639 21.0141 5.11771 21.0143 5.11878C21.0145 5.11931 21.0146 5.11979 21.0147 5.1202C21.0147 5.12041 21.0148 5.12067 21.0148 5.12077C21.0149 5.12102 21.0149 5.12125 21.5 5ZM24.3628 1.98075C25.1467 2.20473 25.5177 2.54402 25.6948 2.86595C25.8772 3.19761 25.9025 3.59911 25.8211 4.03284C25.7399 4.4658 25.5603 4.8855 25.3929 5.20586C25.3103 5.36386 25.2332 5.49276 25.1776 5.58112C25.1498 5.62521 25.1275 5.65893 25.1127 5.68083C25.1053 5.69178 25.0998 5.69976 25.0965 5.70458C25.0948 5.70699 25.0937 5.70861 25.0931 5.70941C25.0928 5.70982 25.0927 5.71002 25.0927 5.71001C25.0927 5.71001 25.0927 5.70995 25.0928 5.70985C25.0928 5.70979 25.0929 5.70967 25.093 5.70965C25.093 5.70951 25.0931 5.70937 25.5 6C25.9069 6.29062 25.907 6.29045 25.9071 6.29026C25.9072 6.29018 25.9073 6.28999 25.9074 6.28983C25.9077 6.28951 25.9079 6.28913 25.9082 6.2887C25.9088 6.28785 25.9096 6.28678 25.9105 6.2855C25.9123 6.28293 25.9147 6.27951 25.9177 6.27527C25.9236 6.26679 25.9317 6.25499 25.9417 6.24005C25.9619 6.21021 25.9899 6.16775 26.0236 6.11418C26.091 6.00723 26.182 5.85488 26.2791 5.66913C26.471 5.30199 26.6977 4.78419 26.804 4.21715C26.9102 3.65088 26.9042 2.98987 26.571 2.38404C26.2325 1.76846 25.6035 1.29525 24.6375 1.01923L24.3628 1.98075ZM25.1465 6.35355C26.4157 7.62275 27.4061 8.61315 28.3965 9.60355C29.3869 10.5939 30.3773 11.5843 31.6465 12.8535L32.3536 12.1464C31.0844 10.8772 30.094 9.88684 29.1036 8.89644C28.1132 7.90604 27.1228 6.91565 25.8536 5.64644L25.1465 6.35355ZM32 12.5C32.2031 12.9569 32.2029 12.957 32.2028 12.957C32.2028 12.957 32.2027 12.9571 32.2027 12.9571C32.2026 12.9571 32.2026 12.9571 32.2027 12.9571C32.2028 12.957 32.2032 12.9569 32.2038 12.9566C32.2051 12.956 32.2075 12.955 32.2109 12.9535C32.2176 12.9506 32.2285 12.946 32.2431 12.9399C32.2724 12.9277 32.3168 12.9096 32.3743 12.8874C32.4896 12.8429 32.6564 12.7824 32.8586 12.7199C33.2668 12.5937 33.8015 12.4651 34.3388 12.4368C34.8821 12.4082 35.3745 12.485 35.7447 12.7142C36.0918 12.9291 36.3976 13.3185 36.5051 14.0707L37.495 13.9293C37.3525 12.9315 36.9083 12.2584 36.2711 11.8639C35.6569 11.4837 34.9305 11.4043 34.2863 11.4382C33.636 11.4724 33.0145 11.625 32.5633 11.7645C32.3358 11.8348 32.1472 11.9032 32.0144 11.9544C31.9479 11.9801 31.8951 12.0015 31.8582 12.0169C31.8398 12.0246 31.8253 12.0308 31.815 12.0352C31.8098 12.0374 31.8057 12.0392 31.8027 12.0405C31.8012 12.0412 31.8 12.0418 31.799 12.0422C31.7985 12.0424 31.7981 12.0426 31.7978 12.0427C31.7976 12.0428 31.7974 12.0429 31.7973 12.0429C31.7971 12.043 31.7969 12.0431 32 12.5ZM36.5051 14.0707C36.605 14.7697 36.4607 15.2261 36.2394 15.5381C36.0102 15.8614 35.6573 16.0866 35.248 16.2391C34.8398 16.3912 34.4086 16.4583 34.071 16.4858C33.9041 16.4994 33.7645 16.5029 33.6681 16.5032C33.6199 16.5033 33.5828 16.5026 33.5587 16.5019C33.5467 16.5015 33.5379 16.5012 33.5327 16.501C33.53 16.5009 33.5283 16.5008 33.5275 16.5007C33.5271 16.5007 33.5269 16.5007 33.5269 16.5007C33.527 16.5007 33.527 16.5007 33.5272 16.5007C33.5273 16.5007 33.5274 16.5007 33.5275 16.5007C33.5276 16.5008 33.5278 16.5008 33.5 17C33.4722 17.4992 33.4724 17.4992 33.4727 17.4992C33.4728 17.4993 33.473 17.4993 33.4732 17.4993C33.4736 17.4993 33.474 17.4993 33.4745 17.4993C33.4755 17.4994 33.4768 17.4995 33.4783 17.4995C33.4813 17.4997 33.4852 17.4999 33.4901 17.5001C33.4998 17.5005 33.5132 17.501 33.53 17.5015C33.5637 17.5024 33.6112 17.5033 33.6705 17.5032C33.7888 17.5029 33.955 17.4985 34.1522 17.4825C34.5428 17.4507 35.0728 17.3716 35.5971 17.1762C36.1204 16.9812 36.6713 16.6578 37.0551 16.1166C37.4469 15.5642 37.6252 14.8405 37.495 13.9293L36.5051 14.0707ZM33.5 17C33 17 33 16.9998 33 16.9996C33 16.9996 33 16.9994 33 16.9993C33 16.9992 33 16.9991 33 16.9991C33 16.999 33 16.9993 33 16.9997C33 17.0007 33 17.0027 32.9999 17.0057C32.9999 17.0117 32.9997 17.0217 32.9993 17.0354C32.9984 17.0628 32.9967 17.1049 32.9932 17.1592C32.9862 17.2682 32.972 17.4252 32.9433 17.6115C32.8854 17.9882 32.7715 18.4641 32.5528 18.9014C32.3352 19.3367 32.0269 19.7088 31.589 19.9278C31.1562 20.1442 30.5331 20.2429 29.6213 20.0149L29.3788 20.9851C30.467 21.2571 31.344 21.1683 32.0362 20.8222C32.7232 20.4787 33.1649 19.9133 33.4473 19.3486C33.7286 18.7858 33.8647 18.1993 33.9317 17.7635C33.9656 17.5435 33.9826 17.3568 33.9912 17.2236C33.9955 17.1569 33.9977 17.1032 33.9988 17.0652C33.9994 17.0462 33.9997 17.031 33.9998 17.0201C33.9999 17.0146 34 17.0101 34 17.0068C34 17.0051 34 17.0037 34 17.0026C34 17.002 34 17.0015 34 17.0011C34 17.0008 34 17.0006 34 17.0005C34 17.0002 34 17 33.5 17ZM29.6858 20.0358C29.1924 19.8384 28.9546 19.5396 28.8392 19.2098C28.7155 18.8565 28.7185 18.4234 28.804 17.9671C28.8886 17.5163 29.0458 17.0848 29.1857 16.7607C29.2551 16.6001 29.3187 16.4692 29.3645 16.3795C29.3873 16.3347 29.4056 16.3004 29.4178 16.278C29.4238 16.2667 29.4284 16.2585 29.4312 16.2535C29.4326 16.251 29.4336 16.2492 29.4341 16.2483C29.4343 16.2479 29.4345 16.2476 29.4345 16.2476C29.4345 16.2476 29.4345 16.2476 29.4345 16.2477C29.4344 16.2477 29.4344 16.2478 29.4344 16.2478C29.4343 16.2479 29.4342 16.2481 29.0001 16C28.566 15.7519 28.5659 15.7521 28.5658 15.7522C28.5658 15.7523 28.5657 15.7525 28.5656 15.7526C28.5654 15.7529 28.5652 15.7533 28.565 15.7537C28.5645 15.7545 28.564 15.7555 28.5633 15.7567C28.5619 15.7592 28.56 15.7625 28.5577 15.7666C28.5531 15.7749 28.5467 15.7865 28.5388 15.8011C28.5229 15.8305 28.5006 15.8723 28.4736 15.9252C28.4198 16.0308 28.3467 16.1811 28.2676 16.3643C28.1107 16.7277 27.9241 17.2337 27.8212 17.7828C27.7192 18.3265 27.6909 18.956 27.8953 19.5402C28.108 20.1478 28.5578 20.6616 29.3144 20.9642L29.6858 20.0358ZM29.3537 15.6464L22.8536 9.14644L22.1465 9.85355L28.6466 16.3535L29.3537 15.6464ZM22.5 9.5C22.2519 9.06588 22.2521 9.06578 22.2522 9.0657C22.2523 9.06568 22.2524 9.0656 22.2525 9.06557C22.2526 9.06549 22.2527 9.06545 22.2527 9.06543C22.2528 9.0654 22.2526 9.06549 22.2523 9.06569C22.2515 9.06609 22.25 9.06695 22.2477 9.06824C22.243 9.07081 22.2352 9.0751 22.2244 9.0809C22.2027 9.09249 22.1691 9.11007 22.1249 9.13198C22.0362 9.17587 21.9058 9.23668 21.744 9.30139C21.4178 9.43186 20.9778 9.5727 20.5041 9.62842C20.0299 9.68421 19.5472 9.6519 19.1135 9.46334C18.6899 9.27917 18.2737 8.92933 17.9472 8.27638L17.0528 8.72361C17.4764 9.57067 18.0602 10.0958 18.7148 10.3804C19.3592 10.6606 20.0327 10.6908 20.621 10.6216C21.2098 10.5523 21.7385 10.3806 22.1154 10.2299C22.3052 10.1539 22.4599 10.0819 22.5685 10.0282C22.6229 10.0012 22.6659 9.97879 22.6963 9.96255C22.7115 9.95443 22.7235 9.94786 22.7322 9.94305C22.7365 9.94064 22.74 9.93868 22.7427 9.93718C22.744 9.93643 22.7451 9.9358 22.746 9.93529C22.7465 9.93503 22.7469 9.9348 22.7472 9.93461C22.7474 9.93451 22.7476 9.93439 22.7477 9.93434C22.7479 9.93422 22.7481 9.93411 22.5 9.5ZM17.9851 8.37873C17.759 7.47441 17.8889 6.90503 18.125 6.53406C18.3688 6.15089 18.7814 5.89158 19.2831 5.72434C19.7828 5.55778 20.3239 5.49882 20.7516 5.48407C20.963 5.47678 21.1413 5.48045 21.2654 5.48585C21.3274 5.48855 21.3755 5.49166 21.4073 5.494C21.4232 5.49517 21.4349 5.49615 21.4422 5.49679C21.4458 5.4971 21.4483 5.49734 21.4497 5.49746C21.4504 5.49753 21.4508 5.49756 21.4509 5.49757C21.4509 5.49758 21.4509 5.49758 21.4508 5.49757C21.4507 5.49756 21.4506 5.49755 21.4506 5.49755C21.4504 5.49753 21.4503 5.49751 21.5 5C21.5498 4.50248 21.5496 4.50246 21.5493 4.50243C21.5492 4.50242 21.549 4.5024 21.5488 4.50238C21.5484 4.50234 21.5479 4.50229 21.5473 4.50224C21.5462 4.50213 21.5448 4.50199 21.5431 4.50183C21.5396 4.50151 21.535 4.50109 21.5292 4.50058C21.5176 4.49957 21.5014 4.49823 21.4809 4.49671C21.4399 4.49369 21.3816 4.48996 21.3088 4.4868C21.1635 4.48047 20.9589 4.47633 20.7172 4.48467C20.2386 4.50117 19.5922 4.56722 18.9669 4.77566C18.3436 4.98342 17.6937 5.34911 17.2813 5.99718C16.8611 6.65747 16.741 7.52558 17.0149 8.62126L17.9851 8.37873ZM10.0001 10.8C10.0001 11.8874 10.0669 12.7132 10.0987 13.4712C10.1306 14.2327 10.1303 14.9655 10.0043 15.9356L10.9959 16.0644C11.1315 15.0207 11.1313 14.2275 11.0978 13.4293C11.0642 12.6278 11.0001 11.8604 11.0001 10.8H10.0001ZM10.0043 15.9356C9.84951 17.1269 9.21817 18.0081 8.6253 19.0436C8.04664 20.0543 7.53887 21.1852 8.02538 22.6569L8.97485 22.3431C8.62779 21.2932 8.94894 20.4909 9.49312 19.5405C10.0231 18.6148 10.8086 17.5068 10.9959 16.0644L10.0043 15.9356ZM8.02538 22.6569C8.86105 25.1849 10.7324 26.9532 13.4917 26.9999L13.5086 26.0001C11.2674 25.9621 9.70884 24.5635 8.97485 22.3431L8.02538 22.6569ZM13.4917 26.9999C16.3209 27.0478 18.2338 25.2112 19.1479 22.6692L18.2068 22.3308C17.3918 24.5974 15.7886 26.0387 13.5086 26.0001L13.4917 26.9999ZM19.1479 22.6692C19.7119 21.1005 19.147 19.8872 18.5069 18.8021C17.8499 17.6883 17.1468 16.73 16.9968 15.4421L16.0035 15.5579C16.1848 17.1136 17.0546 18.3083 17.6456 19.3101C18.2534 20.3406 18.6115 21.2055 18.2068 22.3308L19.1479 22.6692ZM16.9968 15.4421C16.8968 14.5846 16.8963 13.8464 16.9218 13.0969C16.9471 12.3563 17.0001 11.5691 17.0001 10.68H16.0001C16.0001 11.5483 15.9492 12.2789 15.9224 13.0628C15.896 13.8379 15.8955 14.6311 16.0035 15.5579L16.9968 15.4421ZM16.54 10.1816C14.0066 9.97893 12.9733 9.99962 10.4405 10.3036L10.5597 11.2964C13.0267 11.0004 13.9934 10.9811 16.4602 11.1784L16.54 10.1816ZM7.50317 11.5448C7.40407 12.4367 7.37022 13.2125 7.31705 13.966C7.26352 14.7248 7.18921 15.488 7.00948 16.4037L7.99075 16.5963C8.18148 15.6246 8.25954 14.8164 8.31457 14.0364C8.36998 13.2511 8.4009 12.5206 8.49706 11.6552L7.50317 11.5448ZM7.00948 16.4037C6.82724 17.3322 6.468 18.0049 6.11887 18.7811C5.77184 19.5525 5.45892 20.386 5.50045 21.5183L6.49978 21.4817C6.46659 20.5768 6.70735 19.9105 7.03084 19.1913C7.35223 18.4769 7.78036 17.6682 7.99075 16.5963L7.00948 16.4037ZM5.50045 21.5183C5.5504 22.8802 5.80415 24.0403 6.32794 25.0849C6.85156 26.1291 7.62961 27.0272 8.68405 27.8874L9.31618 27.1126C8.34069 26.3168 7.66675 25.5239 7.22186 24.6366C6.77714 23.7497 6.54585 22.7377 6.49978 21.4817L5.50045 21.5183ZM8.68405 27.8874C9.88176 28.8645 11.131 29.5582 12.4668 29.8553C13.8095 30.1539 15.2072 30.0445 16.6828 29.4654L16.3175 28.5346C15.0125 29.0466 13.8174 29.1312 12.6839 28.8791C11.5435 28.6255 10.4329 28.0236 9.31618 27.1126L8.68405 27.8874ZM16.6828 29.4654C17.7645 29.041 18.6024 28.5091 19.2907 27.8021C19.9758 27.0983 20.4907 26.2433 20.9564 25.2045L20.0439 24.7955C19.6059 25.7725 19.149 26.5141 18.5741 27.1046C18.0025 27.6918 17.2922 28.152 16.3175 28.5346L16.6828 29.4654ZM20.9564 25.2045C21.3759 24.2686 21.6042 23.4469 21.6771 22.5959C21.7497 21.7497 21.6664 20.8991 21.4925 19.9131L20.5077 20.0869C20.6747 21.0335 20.7428 21.7875 20.6808 22.5105C20.6192 23.2286 20.427 23.9407 20.0439 24.7955L20.9564 25.2045ZM21.4925 19.9131C21.3254 18.9657 20.9035 18.3112 20.5392 17.7345C20.1731 17.155 19.8629 16.6512 19.7452 15.9204L18.7579 16.0795C18.9114 17.0319 19.3274 17.6887 19.6938 18.2686C20.0619 18.8514 20.3787 19.3554 20.5077 20.0869L21.4925 19.9131ZM19.7452 15.9204C19.5077 14.4468 19.5779 13.2672 20.0164 11.8476L19.0609 11.5524C18.575 13.1255 18.4971 14.4609 18.7579 16.0795L19.7452 15.9204ZM19.7555 11.2495C18.6858 10.7345 17.3196 10.2946 16.5725 10.1853L16.4277 11.1747C17.0469 11.2654 18.3142 11.6655 19.3218 12.1505L19.7555 11.2495ZM10.4021 10.3097C9.35432 10.5193 8.81865 10.734 7.8144 11.1358L8.18583 12.0642C9.18135 11.666 9.64568 11.4808 10.5982 11.2903L10.4021 10.3097ZM1.49508 21.5708C2.12203 17.188 4.35781 14.3684 8.25736 12.0288L7.74287 11.1713C3.64219 13.6316 1.18334 16.6882 0.505153 21.4292L1.49508 21.5708ZM7.26537 33.5762C5.03525 32.1804 3.41494 30.4613 2.44075 28.4637C1.46744 26.4678 1.12418 24.1637 1.49508 21.5708L0.505153 21.4292C0.109287 24.1966 0.471042 26.7061 1.54193 28.902C2.61194 31.0961 4.37502 32.9469 6.73485 34.4238L7.26537 33.5762ZM6.73485 34.4238C9.25363 36.0002 12.2118 36.4057 14.9199 36.1595C17.6244 35.9137 20.1308 35.0137 21.7774 33.916L21.2227 33.084C19.7319 34.0778 17.3897 34.9309 14.8294 35.1636C12.2726 35.396 9.54945 35.0057 7.26537 33.5762L6.73485 34.4238ZM26.9987 21.9644C26.7407 18.352 25.4451 15.9076 23.9379 14.2434C22.4385 12.5877 20.7513 11.7288 19.7555 11.2495L19.3218 12.1505C20.2874 12.6154 21.8309 13.4065 23.1967 14.9147C24.5549 16.4145 25.7593 18.648 26.0013 22.0356L26.9987 21.9644ZM22.6 27.7C21.124 29.6681 19.6796 31.1012 17.7765 32.0528L18.2237 32.9472C20.3204 31.8988 21.8762 30.3319 23.4 28.3L22.6 27.7ZM14.5 33.2H13.5V34.2H14.5V33.2ZM26.0011 22.0333C26.1505 24.2743 26.1422 26.1862 25.516 27.9584C24.8959 29.7136 23.6487 31.3856 21.2133 33.0904L21.7867 33.9096C24.3513 32.1144 25.7541 30.2864 26.4589 28.2916C27.1577 26.3138 27.1494 24.2257 26.9989 21.9667L26.0011 22.0333Z" fill="#1D1D1D"/>
</svg>
